<svg id="svg" width="400" height="420" style="display: block; background: rgb(255, 255, 255);" viewBox="0 0 400 420" xmlns="http://www.w3.org/2000/svg" preserveAspectRatio="xMidYMid meet" buffered-rendering="static" xmlns:xlink="http://www.w3.org/1999/xlink"><g><path d="M 235.25 16.131117321068597 C 231.5375 16.203231847656326 226.025 16.60636786160101 223 17.026975129834568 C 219.975 17.447582398068125 215.475 18.522755781510014 213 19.41624931526099 C 210.525 20.309742849011972 206.4865561683047 22.044106835067282 204.02568037401045 23.270391506495024 C 201.5648045797162 24.496676177922758 198.9773045797162 26.0625 198.27568037401045 26.75 C 197.5740561683047 27.4375 196.6625 27.991254818447835 196.25 27.98056626321741 C 195.8375 27.96987770798698 192.06985233288853 31.232377707986984 187.87744962864122 35.23056626321741 C 183.68504692439387 39.22875481844783 177.6509309545054 46.325 174.46830302888912 51 C 171.2856751032728 55.675 166.05332277038426 64.7875 162.8408534002479 71.25 C 159.62838403011156 77.7125 156.325 84.8 155.5 87 C 154.625 89.33333333333333 154.41666666666666 91 155 91 C 155.55 91 159.89659515654063 84.3625 164.65910034786805 76.25 C 169.42160553919544 68.1375 175.69547081539417 57.675 178.6010231838652 53 C 181.50657555233624 48.325 186.0962474931225 42.025 188.80029416339022 39 C 191.50434083365792 35.975 195.2429755574592 32.927590105467296 197.10837132739303 32.22797801214955 C 199.5554089006558 31.310222591744434 201.26589325481785 31.240595932215538 203.25 31.97797801214955 C 205.34488918457447 32.75653176078416 205.99511930340327 33.655110815425545 205.97951199197908 35.75 C 205.96824358756757 37.2625 204.89521306142126 41.425 203.59499971165394 45 C 202.2947863618866 48.575 197.9705094028352 58.7 193.9854953582064 67.5 C 190.0004813135776 76.3 184.83129065721715 88.225 182.49840501073874 94 C 180.1655193642603 99.775 177.28942009957498 107.65 176.107073311438 111.5 C 174.92472652330105 115.35 173.96694770580783 120.1875 173.97867593923087 122.25 C 173.9940287171025 124.94990400242905 174.49004479886645 126.14183047573692 175.75 126.50649110675951 C 176.89621119245763 126.83823154987267 178.70757761508474 125.71378095180344 181 123.24742349563448 C 182.925 121.17636620079799 185.59176282590985 117.46094520275619 186.92613961313302 114.99093238887497 C 188.26051640035618 112.52091957499374 192.6110397995115 103.975 196.59396938903376 96 C 200.576898978556 88.025 205.65271379622976 78.575 207.87355787275325 75 C 210.09440194927674 71.425 212.8313785501214 67.0375 213.9557280968525 65.25 C 215.08007764358365 63.4625 215.55 62.225 215 62.5 C 214.45 62.775 212.26733282326856 65.3625 210.14962849615233 68.25 C 208.0319241690361 71.1375 203.9785247480547 77.55 201.14207422730476 82.5 C 198.3056237065548 87.45 194.00616926847624 93.75 191.5877310315746 96.5 C 189.169292794673 99.25 186.89075848526423 101.275 186.52432145511065 101 C 186.15788442495707 100.725 186.95616980587693 96.675 188.29828896826584 92 C 189.64040813065475 87.325 192.41974800631945 79.45 194.47459980307625 74.5 C 196.52945159983304 69.55 200.64951188025267 61.225 203.63028931511982 56 C 206.61106674998697 50.775 212.12222203168838 42.9 215.87730105223403 38.5 C 220.14935781805582 33.49423323270453 226.03491910240845 28.14778630683484 231.60235872661306 24.21534944579976 C 236.49606142697587 20.758791640989624 241.0625 17.946291640989624 241.75 17.96534944579976 C 242.4375 17.98440725060989 242.775 17.55 242.5 17 C 242.225 16.45 238.9625 16.059002794480868 235.25 16.131117321068597 Z " class="odd" fill="#000000"></path><path d="M 284.75 29.036075797598976 C 283.5125 29.055917486278414 280.025 29.980468915079644 277 31.090634528268374 C 273.975 32.2008001414571 269.8125 34.43456603253756 267.75 36.0545587306694 C 265.6875 37.67455142880123 264.1125 39.23616236527542 264.25 39.524805256167596 C 264.3875 39.813448147059766 268.325 39.305797823001164 273 38.39669342492624 C 277.9833450306217 37.427627995094596 284.49687130907756 36.90021031990738 288.7436466895308 37.12188816875865 C 292.7276523687728 37.3298496759414 295.9901523687728 37.3875 295.9936466895308 37.25 C 295.9971410102889 37.1125 295.55 35.875 295 34.5 C 294.44827586206895 33.12068965517241 292.4310344827586 31.32758620689655 290.5 30.5 C 288.575 29.675 285.9875 29.01623410891954 284.75 29.036075797598976 Z " class="odd" fill="#000000"></path><path d="M 50 36.09136239431325 C 45.875 36.133302138181016 39.904750142159045 36.692402767406435 36.732778093686775 37.33380823703641 C 33.5608060452145 37.97521370666639 30.530196793747173 39.175 29.998090868203832 40 C 29.465984942660494 40.825 29.023734800501447 41.8375 29.015312774517064 42.25 C 29.006890748532676 42.6625 29.7875 42.99114645779098 30.75 42.980325461757744 C 31.7125 42.969504465724505 36.1 42.310204050000145 40.5 41.515213426814725 C 44.9 40.720222803629305 52.1 40.05588593829497 56.5 40.03890928162731 C 60.9 40.02193262495966 68.775 40.70564668152717 74 41.558273851777344 C 79.80617431128954 42.50573834422023 84.1827345393988 43.76785197010013 85.25589718380913 44.80425253520701 C 86.22164063490415 45.736913640843156 87.34664063490415 46.15717897240136 87.75589718380913 45.73817549422525 C 88.1651537327141 45.319172016049144 87.6 44.34053662908694 86.5 43.5634301898648 C 85.4 42.786323750642666 81.35 41.229583838393566 77.5 40.10400816264458 C 73.65 38.9784324868956 67.575 37.59796724463238 64 37.036307624281875 C 60.425 36.474648003931364 54.125 36.049422650445486 50 36.09136239431325 Z " class="odd" fill="#000000"></path><path d="M 308.5 43.11628282843746 C 307.95 43.20212753201345 306.4875 43.43608218344156 305.25 43.63618205383327 C 304.0125 43.83628192422497 302.988428611758 44.3375 302.97428580390675 44.75 C 302.9601429960555 45.1625 304.12789930604947 46.625 305.56929982611564 48 C 307.01070034618186 49.375 308.85872106170194 51.85 309.6760125272714 53.5 C 310.99831971416205 56.16955786311725 310.99259883420643 56.665221068441376 309.6240741152128 58 C 308.2539375095306 59.33635107151492 307.6723293807912 59.2088026617928 304.29307561015025 56.830896014081624 C 302.2068840245676 55.362888821826516 298.025 53.44600517998965 295 52.57115458777747 C 291.975 51.696303995565295 288.375 50.99070630921171 287 51.003159729213955 C 285.625 51.0156131492162 281.8 51.86594639820251 278.5 52.89278917140575 C 275.2 53.919631944609 270.7 55.982970576666375 268.5 57.47798613153326 C 266.3 58.97300168640014 263.4928821636319 61.38955207925069 262.2619603636265 62.84809811564561 C 261.0310385636211 64.30664415204052 259.4560385636211 66.74016504294504 258.7619603636265 68.25592231765563 C 258.0678821636319 69.77167959236623 257.8375 71.23417959236623 258.25 71.50592231765563 C 258.6625 71.77766504294503 264.175 69.75 270.5 67 C 276.825 64.25 284.3625 61.69442413742698 287.25 61.320942527615514 C 291.4714719415369 60.774919276879885 293.08773031912176 61.01008802526746 295.5 62.521333629127696 C 297.15 63.55503034477086 301.5375 67.46060620734389 305.25 71.20039110151218 C 308.9625 74.94017599568048 312.45 78 313 78 C 313.55 78 314.8935920923786 76.0875 315.98576020528577 73.75 C 317.3284827515494 70.87625381129577 317.9707452382198 67.39514122978295 317.9691266061238 63 C 317.96781001367754 59.425 317.41171792129893 54.74464581413726 316.733366400838 52.59921292030501 C 316.0550148803771 50.453780026472764 314.15 47.40732537504466 312.5 45.8293136949092 C 310.85 44.251302014773756 309.05 43.030438124861476 308.5 43.11628282843746 Z " class="odd" fill="#000000"></path><path d="M 72.5 44.18842599362125 C 70.3 44.228667636795805 64.9 44.66068905529684 60.5 45.14847359029021 C 56.1 45.63625812528358 48.9 46.935789277388835 44.5 48.036320594968544 C 40.1 49.13685191254826 33.8 51.293343412065376 30.5 52.82852392722881 C 27.2 54.36370444239224 22.025 57.42692265854564 19 59.63567551868081 C 15.975000000000001 61.84442837881599 12.037500000000001 65.52998210262265 10.25 67.82579490491784 C 8.462499999999999 70.12160770721303 7.229709323735442 72.3375 7.510465163856537 72.75 C 7.791221003977633 73.1625 9.253721003977631 72.32874907247029 10.760465163856537 70.89722016104508 C 12.267209323735443 69.46569124961988 15.524999999999999 66.94534072109832 18 65.29644120877495 C 20.475 63.64754169645157 24.525 61.18704354477213 27 59.828667538376195 C 29.475 58.47029153198026 34.875 55.95789354909577 39 54.245560909744015 C 43.125 52.53322827039226 50.775 50.17976788693695 56 49.015648946510005 C 61.225 47.85153000608306 69.775 46.606876290434755 75 46.24975180062488 C 83.14434963250396 45.693092143717465 83.92919984526483 45.49446726883735 80.5 44.85784695804631 C 78.3 44.44942378443797 74.7 44.1481843504467 72.5 44.18842599362125 Z " class="odd" fill="#000000"></path><path d="M 98 45 C 97.45 45 96.37853534405048 46.0125 95.6189674312233 47.25 C 94.85939951839612 48.4875 93.95939951839611 50.7375 93.6189674312233 52.25 L 93 55 L 97.75 55.60092260751249 C 100.3625 55.93143004164435 103.625 56.784583217794655 105 57.49681855451316 C 106.375 58.20905389123167 108.30362444541676 59.62613871785105 109.28583210092611 60.64589594700068 C 110.4600851603894 61.86504043189858 111.26515518736616 64.7260008471384 111.63666461838724 69 C 112.0313415810252 73.5405280811645 111.56835390813121 78.74066509653565 110.10083251746111 86.25 C 108.94537463285751 92.1625 108.00689074853268 100.0375 108.01531277451707 103.75 C 108.02373480050144 107.4625 108.42879349828728 111.175 108.91544321404113 112 C 109.52952913445097 113.04103807715849 110.00527938911956 111.66415230863393 110.47031159524522 107.5 C 110.83883948915361 104.2 111.67128079136778 99.80201703480003 112.32018115572114 97.72670452177785 C 113.10090664170903 95.2297890331873 114.0919666230082 93.96128912674114 115.25 93.97670452177785 C 116.3836703132211 93.9917956029737 117.55876501867806 95.49680066789162 118.58655148966952 98.25 C 119.65585448405396 101.11441237849803 120.05703285506748 104.78214431776794 119.8170821687465 109.5 C 119.50830617902825 115.57108310446893 118.69953430881722 118.09242896376756 113.7224539854142 128.5 C 110.56621993040734 135.1 107.75345576679561 142.3 107.47186695516592 144.5 L 106.95988729765739 148.5 L 109.03722944054536 144 C 110.17976761913376 141.525 113.67629297716084 135.77179952712106 116.80728579171668 131.21511006026904 C 119.9382786062725 126.65842059341702 122.8375 122.94592059341703 123.25 122.96511006026904 C 123.6625 122.98429952712107 124.01000613051497 124.0125 124.02223584558881 125.25 C 124.03446556066265 126.4875 124.90682984895977 128.625 125.96082315291575 130 C 127.45008427277239 131.94283401243354 127.98352957475743 132.16570040746012 128.3543885979054 131 C 128.61685628869373 130.175 129.0552239856137 126.575 129.32853903550534 123 C 129.60185408539698 119.425 130.53974350463668 114.8125 131.4127377449269 112.75 C 132.2857319852171 110.6875 133.48780679553525 109.1125 134.08401510118944 109.25 C 134.76917459894352 109.40801428803951 135.26984295936444 113.91531417410373 135.44473827696902 121.5 C 135.64287616756064 130.09264656668086 136.25789917435063 135.04286951024736 137.61072317577958 138.9336699979295 C 138.64982542910082 141.92218849679074 140.0625 144.50968849679074 140.75 144.6836699979295 C 141.4375 144.85765149906828 142.2113333512906 143.9875 142.46962966953464 142.75 C 142.72792598777872 141.5125 143.3476521266634 136.45 143.84679886705618 131.5 C 144.34594560744898 126.55 145.2596122561584 121.4875 145.87716919752154 120.25 C 146.51836844378315 118.96512404103618 147.750652031917 118.11656375203036 148.75 118.27174583879057 L 150.5 118.54349167758114 L 150.09782720706778 140.02174583879057 C 149.84443310912536 153.55439383040948 150.0753285746978 162.23987448979355 150.72197486659002 163.5 C 151.56362966184244 165.14014035429113 151.86090481979963 164.37543860715982 152.37414765952224 159.25 C 152.718366446785 155.8125 153.675 151.2 154.5 149 C 155.325 146.8 156.45 145.225 157 145.5 C 157.59979989045812 145.79989994522907 157.86521703062593 149.9019510680333 157.6632110632644 155.75 L 157.32642212652883 165.5 L 157.6632110632644 169.75 C 157.848444978469 172.0875 158.45 174 159 174 C 159.5636269791678 174 160.10909325520805 170.4708337840133 160.25 165.9125013520399 L 160.5 157.82500270407982 L 163 155.87005286097207 C 164.375 154.79483044726277 166.7375 153.9342048388448 168.25 153.95755150893214 L 171 154 L 171.00187270831938 146.25 L 171.00374541663876 138.5 L 168.25187270831938 137.3236723251588 C 166.71560601927592 136.66697297391514 164.6638843282311 134.4582842951094 163.60721248360588 132.3236723251588 C 162.07865271854743 129.23578653746102 161.83488411156802 127.24920963754447 162.34041670956773 122 C 162.68471216786352 118.425 163.8696428198315 112.8 164.9735959361633 109.5 C 166.07754905249507 106.2 166.87260715081223 103.3820935145422 166.74039171020144 103.23798558787156 C 166.60817626959064 103.09387766120092 164.925 106.40533176939209 163 110.59677249496306 C 161.075 114.78821322053403 158.7125 118.61861970599182 157.75 119.1087869070915 C 156.58203237766475 119.70359149973058 155.7689220652939 119.58426258738233 155.3052166833774 118.75 C 154.92308585923496 118.0625 154.46013338913536 114.575 154.2764334164894 111 C 154.09273344384346 107.425 153.50538593632362 102.8125 152.97121673311202 100.75 C 152.4370475299004 98.6875 151.6625 96.98703542923035 151.25 96.9711898427341 C 150.8375 96.95534425623785 149.9375 98.08034425623785 149.25 99.4711898427341 C 148.5625 100.86203542923035 147.55 102 147 102 C 146.45 102 144.785578314406 99.6375 143.30128514312446 96.75 C 141.01262140166025 92.29770130231617 140.5339392182686 89.90459739536766 140.15088103132325 81 L 139.69919177639764 70.5 L 142.37967295264008 63.5 C 143.85393759957344 59.65 144.93411944988398 56.37294888463186 144.7800770644413 56.2176641880708 C 144.62603467899856 56.062379491509745 143.4875 57.52487949150974 142.25 59.4676641880708 C 141.0125 61.41044888463186 140 63.225 140 63.5 C 140 63.775 138.65 66.025 137 68.5 C 134.7471264367816 71.87931034482759 133.43965517241378 72.93773946360153 131.75 72.75 C 129.86088351527886 72.54009816836432 129.52271765122944 71.93862564289957 129.6416377116222 69 C 129.71953845301442 67.075 130.1695384530144 63.58060587892883 130.6416377116222 61.23467973095295 L 131.5 56.969359461905896 L 129.25 56.98467973095295 C 128.00180616885416 56.99317869331563 126.38891194967523 58.00180616885416 125.6275307978954 59.25 C 124.87267273673787 60.4875 123.26745598862294 64.65 122.06038246875111 68.5 C 120.85330894887929 72.35 119.56455937327506 75.95 119.19649452296395 76.5 C 118.82842967265283 77.05 118.03143320149255 73.45 117.42539125371886 68.5 C 116.81934930594517 63.55 116.67848087401906 58.15 117.11235029388304 56.5 C 117.54621971374702 54.85 118.82343293302225 52.2625 119.95060189227242 50.75 C 121.07777085152259 49.2375 121.77718770579425 47.6625 121.50486156843165 47.25 C 121.23253543106905 46.8375 116.39503543106906 48.24253369743189 110.75486156843165 50.37229710540419 C 105.00771050163824 52.542455745943336 99.73075574202282 53.97105222504382 98.75 53.62229710540419 C 97.71594589477445 53.25458917596809 97 51.97722015032221 97 50.5 C 97 49.125 97.45 47.775 98 47.5 C 98.55 47.225 99 46.55 99 46 C 99 45.45 98.55 45 98 45 Z " class="odd" fill="#000000"></path><path d="M 74.5 48.173966153652486 C 72.3 48.1551197089177 66 49.19719350803864 60.5 50.48968570725456 C 55 51.78217790647048 48.7 53.4911794383403 46.5 54.2874668891875 C 44.3 55.0837543400347 39.40171728494785 57.25732824713228 35.6149272998841 59.117631127182115 C 31.82813731482036 60.97793400723195 26.203137314820363 64.54036230722504 23.114927299884105 67.03413846050009 C 20.026717284947846 69.52791461377515 15.3625 74.36541461377514 12.75 77.78413846050009 C 10.1375 81.20286230722505 8 84.675 8 85.5 C 8 86.325 11.286412063446562 83.7375 15.30313791877014 79.75 C 19.31986377409372 75.7625 25.957363774093718 70.28364416057462 30.05313791877014 67.57476480127696 C 34.14891206344656 64.86588544197927 41.1 60.94644911670801 45.5 58.864906300674136 C 49.9 56.783363484640255 56.875 54.162838478424774 61 53.04151739797307 C 65.125 51.92019631752136 70.75 50.37398493657412 73.5 49.6054921069792 L 78.5 48.208232416806624 L 74.5 48.173966153652486 Z " class="odd" fill="#000000"></path><path d="M 81 51.1877102855704 C 79.075 51.23426988772327 76.375 51.46373951675289 75 51.6976427945251 C 73.625 51.931546072297316 68.9 53.06646619516356 64.5 54.219687512005635 C 60.1 55.37290882884772 53.35 57.812539599096674 49.5 59.64108922366998 C 45.65 61.46963884824328 40.274981586578164 64.66093680115206 37.55551463684036 66.73286245235617 C 34.83604768710255 68.80478810356028 32.58604768710255 70.94383723063552 32.55551463684036 71.48630495696784 C 32.524981586578164 72.02877268330015 33.2875 72.59127268330015 34.25 72.73630495696784 C 35.2125 72.88133723063552 42.1875 69.674125381988 49.75 65.6091675155289 C 57.3125 61.54420964906978 66.65 57.195414916561255 70.5 55.9451792210655 C 74.35 54.69494352556975 79.075 53.09400584786346 81 52.38753993727374 L 84.5 51.10305646347426 L 81 51.1877102855704 Z " class="odd" fill="#000000"></path><path d="M 245 82 C 244.45 82 243.06509042406927 83.2375 241.92242316459837 84.75 C 240.77975590512747 86.2625 229.07975590512748 98.4125 215.92242316459837 111.75 C 200.75000000000003 127.13018365488968 192 136.73153124495755 192 138 C 192 139.1 193.35 141.125 195 142.5 C 196.65 143.875 198.45 145 199 145 C 199.55 145 199.81376605358545 145.3375 199.58614678574543 145.75 C 199.3585275179054 146.1625 196.77102751790542 146.2166458044992 193.83614678574543 145.87032400999823 C 190.90126605358543 145.52400221549726 186.475 144.91814733530418 184 144.5239798317914 L 179.5 143.80731164358633 L 175.8341790659428 150.65365582179317 C 173.81797755221135 154.41914511980693 171.47983141113693 159.975 170.63829875244411 163 C 169.7967660937513 166.025 168.82599110723189 170.975 168.4810210046232 174 C 168.1360509020145 177.025 168.34146812733124 182.425 168.93750372754928 186 C 169.53353932776733 189.575 171.2323561747188 194.975 172.71265227633032 198 C 174.19294837794183 201.025 175.5381772936995 203.8375 175.7020498669029 204.25 C 175.86592244010632 204.6625 174.875 205 173.5 205 C 172.03536896873896 205 170.35522593384545 205.93183207186507 169.44312973050597 207.25 C 168.43599683086822 208.70551563838484 168.08289267015036 210.64758852233302 168.44312973050597 212.75 C 168.75227554009618 214.55423329491276 170.00091541121424 216.6683040277341 171.25 217.50230883204966 C 172.4875 218.32857868967696 175.69515813607535 219.79107868967697 178.37812919127856 220.75230883204966 C 181.06110024648177 221.71353897442233 184.32360024648176 223.5125 185.62812919127856 224.75 C 187.09687453430237 226.14327867675263 188 228.14229509766315 188 230 C 188 232.25609506829232 186.42704239422972 234.7977702516269 181.65661845193262 240.25 C 178.16775860049555 244.2375 174.34444072769256 249.075 173.16035651237036 251 C 171.97627229704818 252.925 171.01027894719385 255.625 171.01370462380518 257 C 171.0189716986248 259.1141014458369 170.3237772962839 259.69294927708154 166.5099665633674 260.75 C 164.02948495351535 261.4375 160.0875 262.01466763099575 157.75 262.0325947355461 C 154.74612394190677 262.05563251101125 152.91358873322034 261.46234954149054 151.5 260.00915827335535 C 150.19090485340087 258.66338804224847 149.84545242670043 257.63225235931066 150.5 257.0242735157444 C 151.05 256.5134040578137 155.1 255.96145046579954 159.5 255.7977099779352 C 165.81212889869548 255.56281200854085 167.5 255.18352416850541 167.5 254 C 167.5 253.07780080873871 165.3813970346247 251.77125578989742 162 250.6081433279056 C 158.975 249.56762215825367 152.675 248.50531330837777 148 248.24745699484802 C 142.4845137327039 247.94324245876055 136.5154862672961 248.34391574935051 131 249.38858860791288 C 126.325 250.27406730862828 119.35 252.50244549177788 115.5 254.3405401260231 C 111.65 256.17863476026827 107.0375 258.8789610368316 105.25 260.34126518505263 C 103.4625 261.8035693332737 102 263.675 102 264.5 C 102 265.611308588413 102.71260092124278 265.8486311450664 104.75 265.41585207279627 L 107.5 264.83170414559254 L 109.75 265.41585207279627 C 110.9875 265.7371334327583 112.18624966819627 266.5625 112.41388815154727 267.25 C 112.64152663489827 267.9375 112.52902663489827 269.0950605852416 112.16388815154727 269.82235685609237 C 111.62865492876251 270.8884540896524 109.94967947130645 270.7274109738391 103.5 268.99133842947566 C 99.1 267.80698202398565 94.375 266.9869214387441 93 267.1689815733833 C 91.26981305958812 267.39807107689046 90.42301869404119 268.1928317536293 90.25 269.75 C 90.09163367695 271.17529690745005 90.82470309254995 272.5290780692306 92.25 273.44345967236296 C 93.4875 274.2373624921626 97.2 275.33774256278645 100.5 275.8887487181937 C 104.62036948146547 276.57673324753915 107.75308701235635 276.55832605994414 110.5 275.8299908269588 C 112.7 275.24666783137224 118.45983417602781 272.0087877607484 123.29963150228403 268.634701781128 L 132.09926300456806 262.5 L 137.29963150228403 264.3814721959228 C 140.1598341760278 265.4162819036804 146.775 268.47468687512264 152 271.1779276880168 C 157.225 273.88116850091086 165.325 279.160643880665 170 282.9100951985816 C 174.675 286.65954651649815 182.28846211922445 293.7261415450559 186.91880470938767 298.6136397064877 C 191.5491472995509 303.50113786791945 202.2757379432708 316.05 210.75567280654303 326.5 C 219.23560766981524 336.95 228.7253978222621 348.2 231.84409536753606 351.5 C 234.96279291281 354.8 239.6578257483239 359.525 242.27750166867807 362 C 244.89717758903225 364.475 247.36892531736092 366.17735637489835 247.77027439829737 365.7830141664407 C 248.17162347923383 365.3886719579831 246.97553812154055 362.46367195798314 245.1123069367568 359.2830141664407 C 243.24907575197307 356.1023563748983 239.95803504331104 351.025 237.7988831397301 348 C 235.63973123614915 344.975 230.1457311617789 338.45 225.58999408557398 333.5 C 221.03425700936904 328.55 215.55029771803106 322.46440880788936 213.4034178826007 319.9764640175319 C 211.25653804717032 317.48851922717444 207.8125 313.10101922717445 205.75 310.2264640175319 C 203.6875 307.35190880788934 202.225 304.775 202.5 304.5 C 202.775 304.225 204.0125 304.9024524142001 205.25 306.00544980933364 C 206.4875 307.1084472044671 207.79649664410454 307.6709472044671 208.15888143134342 307.25544980933364 C 208.5212662185823 306.8399524142001 208.39796317803584 303.8 207.8848746745735 300.5 C 207.17290323722332 295.92085677733775 207.30617912581206 293.1975479541071 208.44767265976571 289 C 209.27030005508382 285.975 210.18110309563028 282.4875 210.47167941653566 281.25 C 210.76225573744105 280.0125 210.55 279 210 279 C 209.45 279 206.7320765256491 277.9875 203.96017005699798 276.75 C 200.6344807961775 275.26526719721244 198.9338870245943 273.9047921799459 198.96017005699798 272.75 C 198.99041570297962 271.4211032836481 199.54141850754758 271.1511906842721 201.25 271.62831069656824 C 202.4875 271.9738815796808 205.3 273.16504956035965 207.5 274.27535065363236 C 209.7 275.3856517469051 216 279.12140774689334 221.5 282.57703065360613 C 227 286.03265356031886 234.425 290.2170577013157 238 291.87570652248786 C 241.575 293.53435534366 245.7375 295.1408595302162 247.25 295.4457158259459 C 248.7861894493694 295.7553469169038 250 295.55861434522524 250 295 C 250 294.45 247.1875 292.0075871643329 243.75 289.5724159207398 C 240.3125 287.1372446771466 233.24018176604238 282.29974467714663 228.03373725787196 278.8224159207398 L 218.56747451574392 272.5 L 217.33780850169637 263.5 C 216.36359759111147 256.36969136732995 215.16206385533948 252.57837276135533 211.5540712438244 245.25 C 209.049332059721 240.1625 207 235.55 207 235 C 207 234.45 207.5625 234.01137519315023 208.25 234.0252782070005 C 208.9375 234.0391812208508 210.30216763099574 234.8266812208508 211.28259473554613 235.7752782070005 C 212.44215970951907 236.89719725070134 213.053797375115 237.06311595314577 213.03259473554613 236.25 C 213.01466763099575 235.5625 210.74021027989633 230.1625 207.97824506643627 224.25 C 204.6764334440353 217.1818584020145 202.9983455102525 212.30125540399527 203.07869616518173 210 L 203.20090219749093 206.5 L 204.10045109874545 210.25 C 204.59520299443545 212.3125 206.0688846986732 216.1375 207.3752993303849 218.75 C 208.6817139620966 221.3625 210.50175037007804 224.175 211.41982468145477 225 C 212.33789899283153 225.825 213.06003318666194 227.85 213.0245673344113 229.5 C 212.98851012799852 231.177511939106 213.85054075352886 233.4918660456705 214.9800419833414 234.75 C 216.3446430227084 236.27000799682693 218.135543116047 237 220.5 237 C 222.72222222222223 237 224.18253968253967 236.45238095238096 224.5 235.5 C 224.86300528818597 234.41098413544208 225.89046562679115 234.15228141067746 228.25 234.55579302536944 C 230.36177460687674 234.9169344400323 232.20044639576815 234.57784952074817 233.5 233.5875963972398 L 235.5 232.06360674374076 L 233.5 232.0575175679636 L 231.5 232.05142839218647 L 234 229.5 C 235.375 228.09671438429743 236.8375 226.96014299605548 237.25 226.97428580390675 C 237.6625 226.98842861175802 238.53762103295566 228.6875 239.19471340656816 230.75 C 239.85180578018063 232.8125 241.5821983309738 235.85 243.04003018610854 237.5 C 244.4978620412433 239.15 248.01024100828764 241.5125 250.8453167795404 242.75 C 253.6803925507932 243.9875 259.4432585004926 245.3375 263.65168555665025 245.75 L 271.3033711133005 246.5 L 273.0311614972578 250.5 C 273.9814462084343 252.7 275.82568770794165 255.4955574635048 277.12947594060756 256.7123499188996 C 278.4332641732734 257.9291423742944 280.9625 259.1666423742944 282.75 259.4623499188996 C 285.64630260249544 259.9414875586298 286.1764494554499 259.64630260249544 287.6213314948262 256.75 L 289.24266298965244 253.5 L 290.64058351400956 255.5 C 291.40943980240604 256.6 293.8159866851512 261.55 295.9884654756655 266.5 C 298.1609442661799 271.45 300.408126032869 277.975 300.9822027349747 281 C 301.6994818413066 284.77958082725775 301.7058046286223 288.22041917274225 301.00241602414707 292 C 300.4394566310862 295.025 299.98361145576456 297.8375 299.98942674565455 298.25 C 299.99524203554455 298.6625 300.45 298.775 301 298.5 C 301.55 298.225 303.356441297766 295.8625 305.01431399503554 293.25 C 307.70393536364935 289.0116553809734 308.02708613057996 287.665193852096 308.01431399503554 280.75 C 308.0040567080779 275.1964159918804 307.2593463578695 270.661879750579 305.3866217748681 264.75 C 303.9492637510456 260.2125 301.4742637510456 253.6875 299.8866217748681 250.25 C 298.29897979869065 246.8125 297.225 243.55 297.5 243 C 297.80494548534614 242.3901090293077 304.9244352702118 241.99705305503755 315.75 241.9924458427233 C 325.5125 241.9882910562211 336.425 241.51241411434745 340 240.93494152744847 C 343.575 240.3574689405495 348.3 238.85332176958053 350.5 237.59239225862854 C 352.7 236.33146274767654 355.49871850293465 233.76983968955022 356.7193744509659 231.89989657390336 C 357.9400303989971 230.0299534582565 358.9525303989971 227.7125 358.9693744509659 226.75 C 358.99131720356706 225.49615090135066 358.22033429787757 225.0048149988671 356.25 225.01698323633894 C 354.7375 225.02632401632533 352.7161348376379 224.46382401632533 351.75807741697315 223.76698323633894 C 350.8000199963084 223.07014245635253 348.1000199963084 219.5858271362529 345.75807741697315 216.02406030278422 C 342.6657373199518 211.3210438870263 340.34805094474103 208.9939919691601 337.29228684391376 207.52406030278422 C 334.97804460806634 206.4108271362529 332.84054460806635 204.7125 332.54228684391376 203.75 C 332.24402907976116 202.7875 331.55 202 331 202 C 330.45 202 329.52002440226664 203.2375 328.93338756059245 204.75 C 328.3467507189183 206.2625 326.88425071891834 208.52890706149645 325.68338756059245 209.78646013665877 C 324.4825244022666 211.04401321182112 321.7 212.77069240921657 319.5 213.6235250197598 L 315.5 215.17412976620201 L 310.0953167795403 212.837064883101 C 307.1227410082875 211.55167919739546 303.4102410082875 209.0375 301.8453167795403 207.25 C 299.76983800131603 204.8793303867843 299.0676407989834 203.1236338994121 299.25 200.76095598455726 L 299.5 197.5219119691145 L 314 190.14446959628964 L 328.5 182.76702722346477 L 331.5 183.8653775422387 C 333.15 184.46947021756435 335.1030259414908 186.20938909228477 335.84005764775725 187.7318639305063 L 337.1801152955145 190.5 L 339.59005764775725 187.75 C 341.31161533200645 185.7855199669903 342.0080097233559 183.78601459646953 342.02804096669 180.75 C 342.04651696105867 177.94970509809158 341.2680529246453 175.30612521333634 339.74587188339706 173 C 337.87666757898586 170.1681297700668 336.7259494004065 169.45227644499522 333.71783091670704 169.25 C 330.95352967045534 169.06411868182133 329.87176263635735 168.48705054542938 329.5 167 C 329.2083333333333 165.83333333333334 328.1666666666667 165 327 165 C 325.8993860149612 165 324.66273024438954 165.91666666666666 324.25 167.03842766380183 C 323.8375 168.15956287889284 322.15 169.496040673452 320.5 170.00837831837777 C 318.85 170.52071596330353 314.125 173.85126716968415 310 177.4096032214458 C 304.64774346275874 182.02660380198944 300.92498812731026 184.36810342509 297 185.58620693495305 C 293.975 186.52500292562038 289.025 187.33965927052895 286 187.3965543680832 C 282.975 187.45344946563745 278.7 187.11917649047845 276.5 186.65372553439659 L 272.5 185.80745106879317 L 274.1624837394369 187.65372553439659 C 275.07684979612714 188.66917649047846 279.23844252709773 191.3 283.4104675860381 193.5 C 287.86507912459683 195.8490140270917 291.2516631652674 198.32549298645415 291.61546531767834 199.5 C 292.05000948583154 200.90289212092088 291.52814202217724 202.03514255843 289.8674814710771 203.2924484910677 C 288.5653666619847 204.27829516115492 286.6 205.07100214726316 285.5 205.05401957130823 C 284.4 205.0370369953533 281.25 204.27003855886022 278.5 203.3495786013236 C 275.75 202.42911864378698 270.575 199.90320781513392 267 197.73644342653904 C 263.425 195.56967903794416 258.25 191.95179598625768 255.5 189.6967033116802 C 252.75 187.4416106371027 250.275 185.47021433323116 250 185.31582263641005 C 249.725 185.16143093958894 251.46419313697686 183.33971060678803 253.86487363772633 181.26755523018585 L 258.22974727545267 177.5 L 258.7142043740438 172 C 259.0539657349996 168.14271833214622 258.67072061828645 165.155957728244 257.4310579571114 162 C 256.45887602357357 159.525 254.72667719223068 156.22804526158595 253.581727220794 154.67343391463547 C 252.4367772493573 153.118822567685 248.35 149.24370474584407 244.5 146.06206097721122 C 240.65 142.8804172085784 235.80645015562018 138.52737194699245 233.73655590137815 136.38862706257578 C 231.66666164713615 134.24988217815908 229.47083192591134 130.925 228.8569342986563 129 C 228.2430366714013 127.075 228.02408651578114 123.5875 228.37037839727816 121.25 C 228.71667027877518 118.9125 230.74608869231855 113.5125 232.8801970940412 109.25 C 235.01430549576384 104.9875 238.52263572140006 99.25 240.6764864843439 96.5 C 242.83033724728776 93.75 245.18434067609218 90.15 245.90760521502045 88.5 C 246.6308697539487 86.85 246.94753952831246 84.7125 246.61131582471774 83.75 C 246.27509212112298 82.7875 245.55 82 245 82 Z " class="odd" fill="#000000"></path><path d="M 170.5 95 C 170.225 95 169.81177021300107 95.3375 169.58171158444682 95.75 C 169.35165295589258 96.1625 168.67665295589256 97.7375 168.08171158444682 99.25 C 167.48677021300108 100.7625 167.3375 101.837958849178 167.75 101.63990855372889 C 168.1625 101.44185825827978 169.0625 99.86685825827978 169.75 98.13990855372889 C 170.4375 96.412958849178 170.775 95 170.5 95 Z " class="odd" fill="#000000"></path><path d="M 288 98.06215644909899 C 282.7102753218539 98.11838769828445 280.4759208815083 98.69758277209557 276 101.17282714674285 C 272.975 102.84569278300603 267.8 106.14535897487818 264.5 108.5054186842365 C 261.2 110.86547839359481 257.15 114.20180233255711 255.5 115.91947188193046 C 253.85 117.63714143130383 253.0625 119.0329432553404 253.75 119.02125371312283 C 254.4375 119.00956417090528 258.4875 116.90879548153326 262.75 114.35287884785168 C 267.0125 111.79696221417012 272.75 108.65135822623692 275.5 107.36264776355569 C 278.5259128460372 105.94463847488305 282.37538279626466 105.0156808932081 285.25 105.00976891570399 C 288.51091517804525 105.00306247244248 290.49843156706453 105.54861019756228 291.58993625389905 106.75 C 292.57943738462905 107.8391172363238 293.0514965015406 109.78424944362676 292.83993625389905 111.90065840701513 C 292.6174052295329 114.12681695925139 291.6365643691557 115.92085215652672 290 117.09512552531379 C 288.625 118.08172031651972 285.925 119.02642403336291 284 119.19446711829866 C 281.0768368212795 119.44964496677801 280.4923023004215 119.17037895926883 280.4532936394992 117.5 C 280.42484896522484 116.28197855840719 279.8383650464194 115.62727517227292 278.9532936394992 115.82552087497682 C 278.1539821377746 116.00455735621406 274.45393807621423 118.47955735621406 270.73097350269836 121.32552087497682 C 267.00800892918244 124.17148439373958 263.9705089291824 127.0625 263.98097350269836 127.75 C 263.9928545155506 128.53055702160574 265.4083289351828 128.98724150448652 267.75 128.96602756857413 C 270.45840154573636 128.94149130569784 272.6110383512145 129.79715909544115 275.5 132.04663334175177 C 278.68641280511673 134.52771631017325 280.11019039616247 135.03629369292025 282.5 134.54705314159867 C 284.15 134.20926601898256 285.95 133.49049342105263 286.5 132.94978070175438 C 287.15933468002476 132.30157952400194 286.5631703700681 131.97234442199957 284.75 131.98333333333332 C 283.1723582679676 131.99289479837594 281.1016995089599 131.0407977807538 279.8928571428571 129.75 C 278.13500950768463 127.87297625396836 278.0106840896952 127.29507337178278 279.1428571428571 126.2637687156141 C 279.88928571428573 125.58384150920186 281.9625 124.57134150920186 283.75 124.0137687156141 L 287 123 L 289.75 126.00943678369624 C 291.2625 127.66462701472918 293.5125 129.01462701472917 294.75 129.00943678369623 C 295.9875 129.00424655266332 297.675 128.325 298.5 127.5 C 299.325 126.675 300.225 124.875 300.5 123.5 C 300.775 122.125 301.225 119.875 301.5 118.5 C 301.78714692656314 117.06426536718428 303.68666846993256 114.8293080960973 305.9620486627197 113.25 C 308.14117542721556 111.7375 309.94117542721557 109.9375 309.9620486627197 109.25 C 309.9829218982239 108.5625 308.3125 106.70680594679018 306.25 105.12623543731152 C 304.1875 103.54566492783287 300.7 101.29410334583612 298.5 100.12276525509654 C 295.5389191553519 98.54620762641667 292.8117563725532 98.01100613635728 288 98.06215644909899 Z " class="odd" fill="#000000"></path><path d="M 309.25 98.9844636516198 C 309.1125 98.99300864322892 309 99.225 309 99.5 C 309 99.775 309.9 101.35 311 103 C 312.43565433915177 105.15348150872768 314.0581481140904 106.16224128666802 316.75 106.57497132670136 C 319.5950394287603 107.01118895200055 320.9301807867117 106.70953542825399 322.2825947355461 105.32497132670136 C 323.2630218400964 104.32123709701561 324.05052184009645 102.9375 324.0325947355461 102.25 C 324.01466763099575 101.5625 323.8875 100.99959081404747 323.75 100.99909069788328 C 323.6125 100.99859058171907 322.15 101.39591576796181 320.5 101.88203555620046 C 318.23648540199576 102.54890782108347 316.51801946400565 102.29982181840244 313.5 100.86740850993701 C 311.3 99.82324384625343 309.3875 98.97591866001069 309.25 98.9844636516198 Z " class="odd" fill="#000000"></path><path d="M 328.25 109.00373806043756 C 327.8375 109.00579399367821 326.0375 109.90579399367822 324.25 111.00373806043756 C 322.4625 112.1016821271969 320.4375 114.15043268595498 319.75 115.55651707989995 C 318.8593450975032 117.37809665632372 318.78747607800256 118.85943155922402 319.5 120.70941506429196 C 320.1424965461888 122.37758082801862 321.840637951792 123.78738959199991 324.25 124.65289798439201 C 327.2418539832041 125.72765332603977 328.2015741998591 125.74728466106805 328.9970417739138 124.75 C 329.6981950794011 123.87095796305623 329.3917556875925 122.90646725911003 327.96444703836767 121.5 C 326.84814695816476 120.4 325.941835703551 118.6 325.9504220281149 117.5 C 325.9590083526788 116.4 326.63436446633284 114.6 327.45121339179053 113.5 C 328.2680623172482 112.4 328.95070477360076 110.9375 328.96819662812953 110.25 C 328.9856884826583 109.5625 328.6625 109.0016821271969 328.25 109.00373806043756 Z " class="odd" fill="#000000"></path><path d="M 204.25 147.98333333333335 C 204.9375 147.97416666666666 205.95 148.3564943495762 206.5 148.8329504064656 C 207.05 149.30940646335503 209.525 150.47885152174717 212 151.43171720289257 C 214.475 152.38458288403797 218.075 153.88472379711536 220 154.76536367639787 C 221.925 155.64600355568038 225.4125 157.63405849728824 227.75 159.1832635466376 C 230.0875 160.73246859598692 232.62876590688444 163.4625 233.39725757085426 165.25 C 234.39324599830388 167.5666540348263 234.5165424714119 169.217958434749 233.8265876933952 171 C 233.29422759682282 172.375 232.1029616899384 174.30216763099574 231.1793301225409 175.28259473554613 C 230.06690198370242 176.46342780544094 228.06530089087553 177.05418626213924 225.25 177.03259473554613 C 221.65580175481796 177.00502957288683 221 177.30861259050258 221 179 C 221 180.1 222.2375 182.27396978021977 223.75 183.83104395604397 C 225.2625 185.38811813186814 227.175 186.92885918501932 228 187.2549129630466 L 229.5 187.84773801400527 L 228 188.90855623248558 C 227.175 189.49200625264976 224.475 189.98309502935027 222 189.9998646251534 C 219.525 190.01663422095655 214.8 189.09948435047497 211.5 187.961753801861 C 208.2 186.82402325324705 203.025 184.3961988905919 200 182.56658855151625 C 196.975 180.73697821244056 193.19961416183165 177.7235188314548 191.61025369295925 175.8700121493257 C 190.02089322408682 174.01650546719657 187.9958932240868 170.925 187.11025369295925 169 C 186.22461416183165 167.075 185.22315156122391 165.275 184.88478124716426 165 C 184.5464109331046 164.725 183.97938722044302 163.6 183.62472855236075 162.5 C 183.22084717182162 161.2473321292404 184.0112326390046 158.44483664458892 185.7399473051965 155 C 188.09889119675856 150.2992957605416 188.86331625479164 149.54326587404563 191 149.79771496234355 C 192.375 149.96145819163252 194.75451280084877 150.63645819163253 196.28780622410835 151.29771496234355 C 198.0382065837895 152.05260249511178 199.61972788383102 153.89545997062487 200.53780622410835 156.25 C 201.34201280084878 158.3125 202.00689074853267 161.0125 202.01531277451704 162.25 C 202.02373480050144 163.4875 202.36123480050145 164.95911851433118 202.76531277451704 165.52026336518043 C 203.16939074853266 166.08140821602964 207.2125 168.21890821602963 211.75 170.27026336518043 C 216.2875 172.3216185143312 220.45 173.775 221 173.5 C 221.64740763598223 173.17629618200888 221.57922985420768 172.0303709989511 220.80663851877657 170.25 C 220.15028970410367 168.7375 218.9127897041037 166.6638614672033 218.05663851877657 165.6419143715629 C 217.20048733344944 164.61996727592248 214.3625 162.70746727592248 211.75 161.3919143715629 C 209.1375 160.0763614672033 206.36917251259723 157.9875 205.598161139105 156.75 C 204.82714976561275 155.5125 203.92714976561274 153.0375 203.598161139105 151.25 C 203.18431098827676 149.00142030757095 203.38516165675807 147.99486451124324 204.25 147.98333333333335 Z " class="even" fill="#ffffff"></path><path d="M 190.72222222222223 155.3265262810612 C 190.29444444444445 154.87193682647754 189.94467337575892 157.2 189.94495318069886 160.5 C 189.9453677862509 165.38982904386924 190.45933582149664 167.27290881311868 192.72273095847663 170.67724212032607 C 194.25022893131447 172.97472528650542 197.525 176.37507826815428 200 178.23358207954578 C 202.475 180.09208589093728 206.075 182.58604543972518 208 183.77571441018557 C 209.925 184.96538338064596 212.0625 185.9525303989971 212.75 185.96937445096586 C 213.4375 185.98621850293463 214 185.55 214 185 C 214 184.45 209.6861876064441 181.1875 204.4137502365424 177.75 C 196.91878939800642 172.8634691462541 194.40732777684894 170.6273797463974 192.90147276744221 167.5 C 191.8091488731233 165.23144718298957 191.0889749580584 161.9098935693893 191.23772253089982 159.8265262810612 C 191.38197513890492 157.80611573564488 191.15 155.78111573564487 190.72222222222223 155.3265262810612 Z " class="odd" fill="#000000"></path><path d="M 112.75 155.98333333333335 C 112.3375 155.9925 112.08915628399885 156.3375 112.19812507555301 156.75 C 112.30709386710717 157.1625 112.08209386710716 158.5125 111.69812507555301 159.75 C 111.27786006560173 161.10447974224584 109.90547524052268 162.24559745517914 108.25 162.61706507403738 C 106.7375 162.95645086475793 104.15 162.94859712441078 102.5 162.5996123177104 L 99.5 161.96509448734605 L 98.89571735394965 165.23254724367303 C 98.56336189862196 167.02964625965285 97.09864275623002 170.3 95.64078592641202 172.5 C 94.18292909659402 174.7 92.99235628731668 177.5125 92.99506857246237 178.75 C 92.99827729897233 180.21400501524053 93.87332776084384 181.34933110433752 95.5 182 C 96.875 182.55 103.175 183 109.5 183 C 116.16666666666666 183 121.21014492753623 182.57971014492753 121.5 182 C 121.775 181.45 121.77523827842667 180.4375 121.50052950761481 179.75 C 121.22582073680296 179.0625 119.65082073680296 177.9375 118.00052950761481 177.25 C 116.08333333333333 176.45130923166394 115 175.27790522933768 115 174 C 115 172.38095238095238 114.33333333333333 172 111.5 172 C 109.575 172 108.01627806043031 171.6625 108.0361734676229 171.25 C 108.0560688748155 170.8375 109.85606887481549 168.5875 112.0361734676229 166.25 C 114.21627806043031 163.9125 116.0075 161.2125 116.01666666666667 160.25 C 116.02583333333334 159.2875 115.46333333333334 157.93 114.76666666666667 157.23333333333335 C 114.07 156.53666666666666 113.1625 155.97416666666666 112.75 155.98333333333335 Z " class="odd" fill="#000000"></path><path d="M 236.75 193.98004198334155 C 237.1625 193.9690650741794 238.5125 194.86906507417942 239.75 195.98004198334155 C 240.9875 197.0910188925037 242.26278116862454 199.6875 242.58395815249895 201.75 C 242.9051351363734 203.8125 242.68829542696145 207.975 242.1020921315835 211 C 241.49612206920796 214.12700295808503 239.7802520671454 218.2258160304836 238.1251444807224 220.5 C 236.52402656812677 222.7 233.86068348444437 226.075 232.20660429476155 228 L 229.19918758624732 231.5 L 227.84959379312366 228.75 C 226.75676341141934 226.52319400474485 226.7378154567022 225.52436908659558 227.75 223.5 L 229 221 L 227.75 221.0252782070005 C 227.0625 221.0391812208508 225.69783236900426 221.8266812208508 224.71740526445387 222.7752782070005 C 223.73697815990352 223.72387519315023 222.94947815990352 225.7375 222.96740526445387 227.25 C 222.98533236900425 228.7625 223.45 230.9 224 232 C 224.85289798380398 233.70579596760797 224.66902046355895 233.9962815247844 222.75 233.9747217929995 C 221.5125 233.9608187791492 219.69783236900426 233.1733187791492 218.71740526445387 232.2247217929995 C 217.73697815990352 231.27612480684977 216.94947815990352 229.4875 216.96740526445387 228.25 C 216.98533236900425 227.0125 217.45 225.775 218 225.5 C 218.55 225.225 219 224.55 219 224 C 219 223.45 217.875 223.225 216.5 223.5 C 214.40849673202615 223.91830065359477 213.50980392156862 223.26470588235293 211 219.5 C 209.35 217.025 207.58960267124692 212.8625 207.0880059361043 210.25 C 206.58640920096167 207.6375 206.36140920096165 205.1625 206.5880059361043 204.75 C 206.81460267124694 204.3375 207.7875 204.62073492548413 208.75 205.3794109455203 C 209.7125 206.13808696555648 211.9625 207.48808696555648 213.75 208.3794109455203 C 215.5375 209.27073492548413 218.2375 209.8875 219.75 209.75 L 222.5 209.5 L 222.5 213.95649678934788 L 222.5 218.41299357869576 L 226.5 219.30938561178823 C 229.4226276307714 219.96434064276806 231.11868939164773 219.84138638589684 232.79703084771222 218.85288882244035 C 234.06039781395395 218.10879997009815 235.52038819347274 215.925 236.04145391330954 214 C 236.56251963314634 212.075 236.99135575167583 208.5875 236.9944230655973 206.25 C 236.99749037951878 203.9125 236.55 200.875 236 199.5 C 235.45 198.125 235.225 196.325 235.5 195.5 C 235.775 194.675 236.3375 193.99101889250372 236.75 193.98004198334155 Z " class="even" fill="#ffffff"></path><path d="M 281 267.9764797964532 C 280.175 267.94043802222706 278.825 268.6557883205053 278 269.5661471259604 C 276.8846141043606 270.7969366672644 276.68750036870176 272.28270745266207 277.2312538720342 275.36067247703033 C 277.633443501653 277.6373026146636 278.98344350165297 280.54667432016777 280.2312538720342 281.8259429337062 C 281.4790642424154 283.10521154724455 283.9625 285.0177115472446 285.75 286.0759429337062 C 287.5375 287.13417432016774 289.3375 287.75328533873727 289.75 287.45174519719393 C 290.1625 287.1502050556506 289.71657043693943 283.6627050556506 288.75904541542104 279.70174519719393 C 287.6960538960758 275.30450581087547 286.1383726762691 271.63198414481275 284.75904541542104 270.2710051475231 C 283.51657043693945 269.04505797866085 281.825 268.0125215706794 281 267.9764797964532 Z " class="odd" fill="#000000"></path><path d="M 345.75 277.9674052644539 C 344.8822751195501 277.94477865404986 344.9852448832005 278.47996382142003 346.086700449442 279.7174052644539 C 346.959385696635 280.69783236900423 349.2502360446883 284.425 351.1774790006714 288 C 353.1047219566545 291.575 356.59360508740406 298.775 358.93055262455937 304 C 361.2675001617147 309.225 364.242084680494 316.65 365.5407404440689 320.5 C 366.83939620764386 324.35 368.8239978746454 332.1125 369.95096637073897 337.75 C 371.1344130697378 343.67002419653414 371.9979167842034 351.9075391397131 371.99506857246234 357.25 C 371.9907429733972 365.36363262412885 372.2836491941471 366.9299768449242 374.3793173633606 370 C 375.69336648350037 371.925 377.97123796424876 376.2 379.44125398724594 379.5 C 380.91127001024313 382.8 382.5069399201868 386.4 382.98718712045417 387.5 C 383.4674343207215 388.6 385.699199444964 393.775 387.9466651743264 399 C 390.19413090368886 404.225 392.450518986464 409.175 392.9608609138267 410 C 393.47120284118944 410.825 394.25128537859047 411.1441771321525 394.69437766360676 410.7092825158944 C 395.13746994862305 410.27438789963634 394.88746196315725 407.3493878996363 394.13880436257165 404.2092825158944 C 393.39014676198605 401.0691771321525 391.00658497592985 394 388.84200039355784 388.5 C 386.6774158111858 383 384.2605962519397 376.025 383.47129026189987 373 C 382.68198427185996 369.975 382.03244206998295 364.575 382.0278631466176 361 C 382.02171502776895 356.1998487132234 382.6436369588624 353.19242406675124 384.40601157868707 349.5 L 386.7924853259662 344.5 L 383.85785195118456 339 C 382.2438035950547 335.975 378.6327282869105 328.1 375.83324015530866 321.5 C 373.03375202370677 314.9 369.39374201711485 306.8 367.7443290295489 303.5 C 366.09491604198297 300.2 363.02841884425027 295.025 360.92989081236516 292 C 358.83136278048005 288.975 355.2886486073813 285.0375 353.0571926499234 283.25 C 350.8257366924655 281.4625 348.55 280 348 280 C 347.45 280 347 279.55 347 279 C 347 278.45 346.4375 277.98533236900425 345.75 277.9674052644539 Z " class="odd" fill="#000000"></path><path d="M 185.5 286 C 185.775 286 187.2375 286.61827612604924 188.75 287.3739469467761 C 190.2625 288.12961776750296 192.87864774162384 290.26711776750295 194.56366164805294 292.1239469467761 C 196.24867555448205 293.98077612604925 197.96545363575075 296.625 198.37872405087228 298 C 198.79199446599378 299.375 198.87584672436995 300.6125 198.5650624028193 300.75 C 198.2542780812687 300.8875 195.075 298.075 191.5 294.5 C 187.925 290.925 185 287.55 185 287 C 185 286.45 185.225 286 185.5 286 Z " class="even" fill="#ffffff"></path><path d="M 252 296 C 251.45 296 251.225 296.45 251.5 297 C 251.775 297.55 252.225 298 252.5 298 C 252.775 298 253 297.55 253 297 C 253 296.45 252.55 296 252 296 Z " class="odd" fill="#000000"></path><path d="M 265 302.0040255940927 C 264.175 301.97125596178614 263.15 302.2944444444445 262.72222222222223 302.72222222222223 C 262.2944444444445 303.15 261.95694444444445 303.8375 261.97222222222223 304.25 C 261.9875 304.6625 263.35 305.675 265 306.5 C 266.65 307.325 269.202796504732 307.8875 270.6728811216267 307.75 C 272.1429657385213 307.6125 273.4929657385213 306.9375 273.6728811216267 306.25 C 273.852796504732 305.5625 273.2125 305.0076424563525 272.25 305.016983236339 C 271.2875 305.0263240163255 269.6 304.36563553366716 268.5 303.54878660820947 C 267.4 302.7319376827518 265.825 302.03679522639925 265 302.0040255940927 Z " class="odd" fill="#000000"></path></g></svg>