<svg id="svg" xmlns="http://www.w3.org/2000/svg" xmlns:xlink="http://www.w3.org/1999/xlink" version="1.1" width="400" height="400" preserveAspectRatio="xMidYMid meet" buffered-rendering="static" style="background: rgb(255, 255, 255);" viewBox="107.5 52.83 204.25 325.79"><g><path d="M 131.2544404766757 53.15283146955494 C 127.26938273884736 52.79377416129972 124.01013976742011 52.725 124.01167831794851 53 C 124.01321686847689 53.275 126.59871865397282 54.32944264825653 129.7572378412728 55.34320588501451 C 132.91575702857276 56.35696912177249 140.9 59.79846805538628 147.5 62.99098129304515 C 154.1 66.18349453070402 163.1 71.15484969601616 167.5 74.03843721596103 C 171.9 76.9220247359059 177.525 80.9055258022921 180 82.89066180793039 C 182.475 84.87579781356867 183.97181362229375 85.825 183.32625249398612 85 C 182.68069136567848 84.175 181.6681913656785 82.2625 181.07625249398612 80.75 C 180.19269212743424 78.4923596957082 180.31331980635977 77.71518346478909 181.75 76.40920067451215 C 183.06703865339816 75.21197541653088 184.48962593508992 74.99458941506168 187.5 75.53054140029073 C 189.7 75.92221842848728 194.65 77.36482194014852 198.5 78.73632698176016 C 202.35 80.10783202337178 211.125 84.09021062657477 218 87.58605721110011 C 224.875 91.08190379562545 234.55 96.59627736016145 239.5 99.84022068784678 C 244.45 103.08416401553211 251.1160690100064 108.15968208572876 254.3134866889031 111.11914973272823 L 260.1269733778062 116.5 L 262.31348668890314 114.2591981033446 L 264.5 112.0183962066892 L 262.76319710187136 106.7591981033446 C 261.8079555079006 103.86663914650507 261.03653525284886 100.15 261.0489298684231 98.5 L 261.0714655331035 95.5 L 253.28573276655175 91.86250830156463 C 249.0035797449483 89.86188786742518 241 86.31505417664417 235.5 83.98065565538462 C 230 81.64625713412507 219.875 77.60629386700417 213 75.00295950622707 C 206.125 72.39962514544997 194.875 68.44171082008042 188 66.20759433873914 C 181.125 63.97347785739788 170.1 60.79392728640976 163.5 59.14192640320999 C 156.9 57.48992552001022 148.575 55.613447697460515 145 54.97197568643287 C 141.425 54.33050367540523 135.23949821450407 53.511888777810164 131.2544404766757 53.15283146955494 Z " class="odd" fill="#000000"></path><path d="M 311.75 76.58502109448332 C 311.6125 76.35678269644914 304.75 79.97331882987255 296.5 84.62176805764645 L 281.5 93.07349392632628 L 287 92.36603911913676 L 292.5 91.65858431194722 L 241.93713926038063 136.5792921559736 C 214.12756585359 161.28568147018814 189.71506585358998 182.9625 187.68713926038063 184.75 C 185.6592126671713 186.5375 184.20600538987233 188.3375 184.45778975527185 188.75 C 184.7095741206714 189.1625 190.44707412067137 184.52029186659354 197.20778975527185 178.43398192576342 C 203.96850538987235 172.3476719849333 228.0625 150.8601719849333 250.75 130.68398192576342 C 273.4375 110.50779186659354 292.2301450585959 94.1125 292.5114334635465 94.25 C 292.7927218684971 94.3875 292.5677218684971 96.4125 292.0114334635465 98.75 C 291.4551450585959 101.0875 291.3375 102.83957569471383 291.75 102.6435015438085 C 292.1625 102.44742739290318 296.8875 96.59742739290319 302.25 89.6435015438085 C 307.6125 82.68957569471382 311.8875 76.81325949251749 311.75 76.58502109448332 Z " class="odd" fill="#000000"></path><path d="M 269.5795400437171 118.34754647612401 C 269.5357930196727 118.26369703799222 267.925 119.48129446341073 266 121.0533185326096 C 263.2983274662512 123.25960125995849 262.7569281201087 124.20674917437042 263.62641548536857 125.20577205648559 C 264.24594400232127 125.9175974254185 264.4709440023213 127.26128856673655 264.12641548536857 128.19175237052565 C 263.78188696841585 129.1222161743148 260.8 132.74226817606709 257.5 136.2363123744197 C 254.2 139.73035657277234 248.9125 144.25656800603576 245.75 146.29456000389405 C 242.5875 148.33255200175233 239.09448825825248 151.4625 237.9877516850055 153.25 C 236.8810151117585 155.0375 235.54660554677375 158.075 235.02239709615048 160 C 234.49818864552722 161.925 233.34701465272178 164.4 232.464232667694 165.5 L 230.85917451309803 167.5 L 231.429587256549 163.75 C 231.74331426544705 161.6875 231.6625 160.0162515120866 231.25 160.03611447130356 C 230.8375 160.05597743052053 227.8 162.01061001821537 224.5 164.3797424439588 C 221.2 166.74887486970223 216.81339278598003 170.67012335761564 214.7519839688445 173.09362797265524 C 212.349069754661 175.9186249549182 210.59817930515354 179.29441844137105 209.87327115264748 182.5 C 209.25138792087458 185.25 208.33350909734364 188.175 207.8335404336898 189 C 207.2260983493498 190.002342258649 207.01997276493532 188.90305326680053 207.21225324988688 185.6866113982344 L 207.5 180.8732227964688 L 204 181.53559083818533 C 202.075 181.8998932611294 198.925 183.01220586473178 197 184.00739662396842 C 195.075 185.00258738320505 192.30334726196028 187.09554663522715 190.84077169324505 188.6584171840175 C 189.3781961245298 190.22128773280787 186.8856768715807 193.75 185.30184002002477 196.5 C 183.35716800557728 199.87651446515912 181.21716350409287 202.0682199371943 178.71106832677975 203.25 C 176.6699807470509 204.2125 174.4375 204.8363955000231 173.75 204.63643444449573 C 173.0625 204.43647338896838 174.075 203.4956051621873 176 202.54561616275998 C 177.925 201.59562716333267 181.075 198.76337255940902 183 196.25171704292967 L 186.5 191.68507064933084 L 178.59757575592266 192.09253532466542 L 170.69515151184532 192.5 L 170.39794787859506 190.5 C 170.2344858803074 189.4 169.70686509814178 186.7 169.22545725156033 184.5 C 168.7440494049789 182.3 167.82138194977634 179.4875 167.17508512888796 178.25 C 166.52878830799958 177.0125 166 174.875 166 173.5 C 166 171.94444444444446 166.56666666666666 171 167.5 171 C 168.325 171 169 171.45 169 172 C 169 172.55 168.55 173 168 173 C 167.45 173 167 173.675 167 174.5 C 167 175.325 168.125 177.35 169.5 179 C 170.875 180.65 171.775 182.675 171.5 183.5 C 171.225 184.325 171.9 186.125 173 187.5 C 174.53333333333333 189.41666666666666 175.93333333333334 190 179 190 C 182.11111111111111 190 182.88888888888889 189.66666666666666 182.5 188.5 C 182.225 187.675 182 184.3 182 181 C 182 176.15943886487568 181.57363975728188 174.5652104256716 179.79362109223155 172.75 C 178.58011269295886 171.5125 177.56761269295887 169.52498576650942 177.54362109223155 168.33330170335424 C 177.5196294915042 167.14161764019906 176.375 164.96136133020505 175 163.48828768114532 C 173.625 162.01521403208557 171.2625 160.17772826557615 169.75 159.40498597779106 C 168.2375 158.632243690006 164.6375 158.00748511962288 161.75 158.01663359916193 C 158.8625 158.025782078701 154.76098939569252 158.588282078701 152.6355319904278 159.26663359916193 C 150.5100745851631 159.94498511962288 147.17868030894158 161.85 145.23243359882443 163.5 C 143.28618688870728 165.15 140.63769749301477 168.8625 139.34690160839662 171.75 C 137.86164232898696 175.07251304826877 135.80679379178542 177.75006612395435 133.75 179.04299549069503 C 131.61473691270763 180.38525175493683 129.21002743947946 180.98549470793327 126.73910290051434 180.79299549069503 C 123.4294915647762 180.5351577536676 123.1895032046537 180.658553954379 124.73910290051434 181.8213470378151 C 125.72413138584031 182.56049555003034 127.8218295624196 182.92843842477672 129.5 182.65642340138095 C 131.15 182.38897453054386 133.37094020373902 181.7943683635271 134.4354226749756 181.33507636356586 L 136.37084534995117 180.5 L 134.6854226749756 183.75 C 133.758440203739 185.5375 131.9875 187.67847941269451 130.75 188.50773202821006 C 129.5125 189.3369846437256 127.0375 190.01198464372558 125.25 190.00773202821006 C 123.4625 190.00347941269453 120.5375 190.59526246420856 118.75 191.322805476019 C 116.9625 192.05034848782944 114.47193656917295 193.96284848782946 113.21541459816213 195.572805476019 C 111.9588926271513 197.18276246420854 110.9463926271513 198.8375 110.96541459816213 199.25 C 110.98443656917296 199.6625 112.2375 198.7172494481612 113.75 197.149443218136 C 115.80507791820749 195.0192191101341 118.39524204125229 193.87793337680628 124 192.6330580738392 C 128.125 191.71685247450117 131.6125 191.19960302633996 131.75 191.4836148557032 C 131.8875 191.76762668506643 130.0875 194.02777338654593 127.75 196.50616308121317 C 125.4125 198.9845527758804 124.175 200.83560690154133 125 200.61961669379303 C 125.825 200.40362648604471 127.2875 199.95085309949877 128.25 199.61345361257986 C 129.2125 199.27605412566095 130.01157138824198 199.3375 130.02571419609325 199.75 C 130.03985700394452 200.1625 129.02735700394453 201.50268933706903 127.77571419609325 202.72819852682005 C 126.52407138824196 203.95370771657107 123.25 205.88468921605636 120.5 207.01926852567624 L 115.5 209.08213999771235 L 120 208.48026420719248 C 122.475 208.14923252240658 126.041801438077 206.8932510229213 127.9262254179489 205.68919420833632 C 129.81064939782078 204.48513739375133 132.96064939782076 201.05774484785763 134.9262254179489 198.07276632857253 C 136.891801438077 195.08778780928745 139.0625 192.50028780928744 139.75 192.32276632857253 C 140.67902050557734 192.08288109836948 140.74321640446186 192.51356719107625 140 194 C 139.45 195.1 138.98443656917297 197.0125 138.96541459816214 198.25 L 138.93082919632428 200.5 L 140.96541459816214 197.75 C 142.08443656917296 196.2375 143.45 195 144 195 C 144.5634253604817 195 144.74934957161 196.20058025867533 144.425870388013 197.75 C 144.11009910142016 199.2625 142.87259910142018 201.56171140852288 141.675870388013 202.85935868560642 C 140.47914167460584 204.15700596268996 138.6 205.59098212750135 137.5 206.04597238518727 L 135.5 206.87322739916172 L 137.5 206.93287563914333 C 138.6 206.9656821711332 140.9625 206.0942060063218 142.75 204.99626193956246 C 144.5375 203.89831787280312 146.8544888843822 201.5375 147.898864187516 199.75 L 149.79772837503202 196.5 L 150.75875809677598 198.5 C 151.43310251389747 199.90337890049386 151.91073821834888 200.12711181280866 152.35989390925997 199.25 C 152.711952259167 198.5625 153.5625 197.99184404107552 154.25 197.98187564683448 C 154.9375 197.97190725259344 153.925 199.55506321151793 152 201.5 C 150.075 203.44493678848207 148.95 205.02045029105412 149.5 205.00114111682674 C 150.05 204.98183194259937 151.29575625184813 205.5361759836749 152.2683472263292 206.23301676366123 C 153.7818440693763 207.31740511219436 153.25653274870754 207.5 148.6233347884413 207.5 C 144.62430967941637 207.5 142.62395132598715 208.0225348555874 140.9669714586476 209.5 C 139.7333194425805 210.6 138.05572387549688 213.075 137.23898130957292 215 C 136.42223874364893 216.925 133.67184599020794 221.14307715908743 131.12699741303737 224.37350479797206 C 128.58214883586683 227.6039324368567 124.025 232.12860830986006 121 234.42834007131285 C 117.975 236.72807183276566 114.9629014688435 239.70999467367824 114.3064477085411 241.0548352733408 C 113.6499939482387 242.39967587300336 112.5249939482387 245.6596707559024 111.8064477085411 248.29926834644976 L 110.5 253.0985366928995 L 112.25 254.04926834644976 C 113.2125 254.5721707559024 115.4625 255.00451121374 117.25 255.01002491942216 C 119.0375 255.01553862510434 124.325 253.63078745022278 129 251.93280008635202 C 133.675 250.23481272248122 138.85 248.0334489828734 140.5 247.04088066500134 C 142.15 246.04831234712924 143.8375 244.50806352201081 144.25 243.6181054980715 C 144.67274916552168 242.70603516602384 144.5636655540289 242 144 242 C 143.45 242 144.125 240.65 145.5 239 C 146.875 237.35 148.4742400584756 234.0875 149.05386679661245 231.75 C 149.63349353474928 229.4125 150.27296721895982 227.05 150.4749194281914 226.5 C 150.67687163742298 225.95 150.86206814812033 228.425 150.88646722974104 232 C 150.9187511894403 236.73030738283268 151.43849169799196 239.18065100660283 152.79545033382004 241 C 153.82099195944275 242.375 156.3115553902698 244.5125 158.33003573565793 245.75 C 160.34851608104609 246.9875 162.675 247.775 163.5 247.5 C 164.39723041311433 247.20092319562855 165.03263751401002 245.69399922841438 165.0812188804481 243.75 L 165.16243776089618 240.5 L 166.5361149579568 243.5 C 167.29163741634017 245.15 167.92285750559398 247.85 167.93882626740978 249.5 C 167.9595618269075 251.6425376347858 169.35637980649054 254.072014336226 172.8258675053099 258 C 175.4977714243392 261.025 178.2050028388837 264.5125 178.84193731540884 265.75 C 179.8196462717667 267.64959073984136 179.53156339033762 268.89549033151656 176.9921389313081 273.75 C 174.57312994414752 278.37431653541177 174.23053062883804 279.74834193096507 175.2421389313081 280.76853253864897 C 175.93396251908865 281.4662254349059 178.525 282.5172360495507 181 283.10411168230416 C 183.475 283.69098731505755 187.525 283.8575453707829 190 283.47424069502705 C 192.475 283.0909360192712 196.75 281.71127807748996 199.5 280.40833415773534 C 203.95839356297213 278.29595714509986 204.4593440358604 277.7393307103137 204.1246724433086 275.2696726063635 C 203.81209926312775 272.963086374693 203.97929822145554 272.71178534721525 205.1246724433086 273.7666666666669 C 205.88110259948888 274.4633333333336 207.0625 275.0258333333336 207.75 275.0166666666669 C 208.4375 275.0075000000001 210.8206389471041 273.3125 213.045864326898 271.25 C 216.5084741825559 268.040602474633 217.0837261261888 266.9233573603915 217.0362174788844 263.5 C 217.005686332683 261.3 217.5213535157009 255 218.18214455225745 249.5 C 219.15228875053518 241.42514305531057 219.12961352430438 238.44117131957918 218.06435992234003 234 C 217.33878733932886 230.975 216.46498120920685 224.60710477337156 216.12256852206895 219.84912171860344 C 215.78015583493104 215.09113866383532 215.275 210.9519583057663 215 210.65094314511668 C 214.725 210.3499279844671 212.475 210.83514010731201 210 211.72919230699426 C 207.25746364045003 212.71988752516165 204.71890504868887 213.04983574040116 203.5 212.57402740594267 C 201.8544881270824 211.93169003567186 202.30626119831294 211.59007498886444 206.04887561368486 210.64665652546165 C 208.5507572012115 210.01599543645773 213.1632572012115 207.5875 216.29887561368486 205.25 C 219.43449402615818 202.9125 224.03486123189134 198.1875 226.52191384864744 194.75 C 229.00896646540355 191.3125 230.92146646540354 188.3965661530806 230.77191384864744 188.27014700684583 C 230.62236123189135 188.14372786061102 228.7 188.91536216123774 226.5 189.9848898971274 C 224.3 191.0544176330171 222.1625 191.72035147993648 221.75 191.4647428902816 C 221.3375 191.20913430062672 220.97996359201855 189.9875 220.95547464893014 188.75 C 220.91780904021002 186.84664342708462 221.14890465826645 186.69257968171368 222.45547464893014 187.75 L 224 189 L 227.17274682517953 187.75 C 228.91775757902826 187.0625 232.1400713844098 184.7 234.3334441704718 182.5 C 236.5268169565338 180.3 239.5789027210665 176.475 241.11585698054446 174 L 243.9103192705044 169.5 L 244.26028307397524 172 L 244.6102468774461 174.5 L 250.61902521496046 168.5 C 255.38385479931264 163.74213144498535 257.9119856326379 159.91222615628052 262.83092522054363 150 C 266.40815625553927 142.79147011292358 270.92493795585426 135.38341195483056 273.5008846172799 132.5 L 277.9677223459474 127.5 L 273.8134012166908 123 C 271.5285245955997 120.525 269.6232870677615 118.4313959142558 269.5795400437171 118.34754647612401 Z " class="odd" fill="#000000"></path><path d="M 279.5 131.7984576433099 C 278.95 131.45659102475105 277.74159999133667 131.69958352923226 276.8146666474148 132.33844098660146 L 275.1293332948296 133.5 L 280.0455316881021 143.5 C 283.0767243474816 149.66572484854888 286.0831057687346 157.9094164241688 287.8863394092567 165 C 289.494874539592 171.325 291.3022176318439 180.55 291.9026573920388 185.5 C 292.50309715223364 190.45 293.0030853753383 197.2 293.01374233227136 200.5 C 293.0243992892044 203.8 292.5756669286432 207.9625 292.0165593088021 209.75 C 291.45745168896093 211.5375 290.1 213.45 289 214 C 287.9 214.55 286.2125 214.70660019627897 285.25 214.34800043617548 C 284.2875 213.98940067607197 282.63619562670095 212.97690067607198 281.5804347260022 212.09800043617548 L 279.6608694520043 210.5 L 280.3779293145658 212.5 C 280.7723122389747 213.6 282.06783416278324 219 283.2568669230294 224.5 C 285.09400130739056 232.99786435816515 285.42484749537584 237.80469841203671 285.45937233446574 256.5 C 285.48452729738943 270.1214861731159 285.01643851972136 281.16589076309947 284.2302816721511 285.5 C 283.53193659183415 289.35 283.08193659183416 292.59899934431195 283.2302816721511 292.7199985429154 C 283.378626752468 292.84099774151883 284.94450407099924 287.21599774151883 286.710009046665 280.2199985429154 C 288.47551402233074 273.22399934431195 291.05805486744504 261.2 292.4489887024746 253.5 C 293.83992253750415 245.8 295.6808969079809 234.325 296.54004285908974 228 C 297.39918881019855 221.675 298.3686216669392 205.25 298.6943380962913 191.5 C 299.06343437454876 175.91873553588746 298.85582163153856 161.50807016597963 298.14327489301115 153.25 L 297 140 L 294.25 140.023685795137 C 292.66221727323205 140.03736139382363 289.17556545353597 138.43562171861086 286 136.23370245184543 C 282.975 134.1361844257097 280.05 132.14032426186873 279.5 131.7984576433099 Z " class="odd" fill="#000000"></path><path d="M 156.21880362160584 149.25 C 153.8307513745414 149.06452330370243 152.59998767927988 149.58070973332184 151.4501246148023 151.25 C 150.59769315294358 152.4875 150.0477189186982 154.4 150.2279596498126 155.5 C 150.51364593124407 157.24352882188003 151.19327857320943 157.45663592546498 155.52783503501027 157.16184056350582 C 158.26252576575462 156.975852873434 160.95 156.39679337389487 161.5 155.87504167564106 C 162.1623005047385 155.24675728818346 161.98291575587007 154.0101555781595 160.96880362160584 152.21320111213524 C 159.87010437977776 150.26636264850436 158.52843362632197 149.42938574981812 156.21880362160584 149.25 Z " class="odd" fill="#000000"></path><path d="M 156.5 196 C 156.775 196 157 196.45 157 197 C 157 197.55 156.55 198 156 198 C 155.45 198 155.225 197.55 155.5 197 C 155.775 196.45 156.225 196 156.5 196 Z " class="even" fill="#ffffff"></path><path d="M 163.75 195.99611632213106 C 163.8875 195.99825234495898 163.92688582423807 199.9375 163.8375240538624 204.75 C 163.71060466473793 211.5851327149598 164.09357812174596 214.3497216450754 165.5875240538624 217.38280924348953 C 166.63938582423808 219.51835432740876 168.07291836439043 221.76835432740876 168.77315192086763 222.38280924348953 C 169.47338547734483 222.99726415957028 170.15806463637276 223.275 170.2946611631519 223 C 170.43125768993102 222.725 171.51792359788314 220.475 172.70947429193433 218 L 174.87593009930018 213.5 L 174.93875394467977 221.5 C 174.99187086677546 228.2639186076243 175.4746345313611 230.50431613130525 178.06323210647957 236 C 179.74714198051072 239.575 182.62793681477808 244.075 184.4649984048515 246 C 186.30205999492495 247.925 188.98766901527978 251.3 190.4330184500845 253.5 C 192.35707980721776 256.42865855395394 193.03394249727907 258.7052591268018 192.96017799407247 262 C 192.9047663084612 264.475 192.47268621112858 267.4 192 268.5 C 191.26178008395618 270.2179301797473 191.1322897757871 270.076895269621 191.08185634285087 267.5 C 191.04956354254745 265.85 190.34338767331374 262.475 189.51257663344268 260 C 188.6817655935716 257.525 185.63905860746337 252.67770359976598 182.75100555320216 249.22823022170215 C 179.86295249894098 245.77875684363832 175.92278135430055 240.15375684363832 173.99506967622347 236.72823022170215 C 170.951036161364 231.31900955773932 169.73466519570974 230.13837619940008 164.74506967622347 227.75 C 161.58528135430055 226.2375 159 224.55 159 224 L 159 223 L 161 224 C 162.1 224.55 163.5625 224.98283149828998 164.25 224.96184777397775 C 165.1123748168185 224.93552655883605 164.79667198341042 223.46255086274627 163.23193265328877 220.21184777397775 C 161.9844956125976 217.62033149829 160.9719956125976 214.0375 160.98193265328877 212.25 C 160.99186969397996 210.4625 161.5625 206.07325234495897 162.25 202.49611632213106 C 162.9375 198.91898029930317 163.6125 195.99398029930316 163.75 195.99611632213106 Z " class="even" fill="#ffffff"></path><path d="M 189.25 222.97874628687717 C 189.6625 222.99043582909474 192.1375 224.09002031425717 194.75 225.42226736501595 C 197.3625 226.7545144157747 200.85 228.161239088631 202.5 228.54832219358542 L 205.5 229.252109657139 L 203.5 230.25760869779933 C 202.14067615000894 230.9410081113557 200.37881673748436 230.91515620649693 198 230.17690675545794 C 196.075 229.579496214807 193.15 227.71073280274828 191.5 226.02409917310527 C 189.85 224.33746554346226 188.8375 222.9670567446596 189.25 222.97874628687717 Z " class="even" fill="#ffffff"></path><path d="M 133 240.8324317325181 C 133.825 241.13804500458698 135.0625 241.97577147607134 135.75 242.69404611359442 C 136.6807013846084 243.66640858584432 137.70245695386154 243.740887894596 139.75 242.98561999287801 C 141.2625 242.4277109889609 142.61751458959003 242.0902109889609 142.7611435324223 242.23561999287801 C 142.90477247525456 242.3810289967951 141.21727247525456 243.2875 139.0111435324223 244.25 C 136.80501458959003 245.2125 134.55 246 134 246 C 133.45 246 132.775 245.1 132.5 244 C 132.19320188489542 242.77280753958163 131.13059151797066 241.97284150956662 129.75 241.92971473738962 L 127.5 241.85942947477923 L 129.5 241.06810035631332 C 130.6 240.63286934115706 132.175 240.52681846044922 133 240.8324317325181 Z " class="even" fill="#ffffff"></path><path d="M 142 291 C 138.33333333333334 291 136.46666666666667 291.53333333333336 135 293 C 133.9 294.1 133 295.675 133 296.5 C 133 297.325 134.125 299.125 135.5 300.5 C 137.1 302.1 138.72 302.82 140 302.5 C 141.1 302.225 142 302.45 142 303 C 142 303.55 142.49187603344714 303.8875 143.09305785210478 303.75 C 143.6942396707624 303.6125 144.7067396707624 304.2482651783953 145.34305785210478 305.16281150754514 C 146.24538294189216 306.45967543939753 146.1698835911056 307.1847266913354 145 308.457336858615 C 144.175 309.3547794725537 142.2625 310.0690142941583 140.75 310.04452535106986 C 139.01686618476782 310.01646411777017 137.35290333696594 309.0997134489845 136.25 307.56527648143015 L 134.5 305.13055296286024 L 133.25 307.56527648143015 L 132 310 L 134.75 310.0996800253506 L 137.5 310.1993600507012 L 135 311 C 133.06964600632512 311.61820740944984 133.75322121391528 311.8199938370947 138 311.8855781722524 C 141.025 311.9322941948768 144.625 311.40064492129477 146 310.70413534206995 C 148.07278131868918 309.6541629463571 148.44097697224268 308.8449666412186 148.1546088084431 305.968877144467 C 147.9646436530868 304.0609947150101 147.45837288200957 302.05 147.02956265049372 301.5 C 146.60075241897786 300.95 144.16867845517845 299.9375 141.62495384205062 299.25 C 139.08122922892278 298.5625 136.6625 297.2857932564788 136.25 296.41287390328637 C 135.77960633989935 295.41744183172045 136.0592126797987 294.49112943050454 137 293.9281866778034 C 137.825 293.4345280569803 139.5125 293.0237348005015 140.75 293.01531277451704 C 141.98863226811068 293.006883042681 143.29244327473648 293.786619347025 143.65060150468503 294.75 L 144.30120300937006 296.5 L 145.66758474102403 294.5 C 146.4190946934337 293.4 147.02632401632542 292.1625 147.016983236339 291.75 C 147.00764245635256 291.3375 144.75 291 142 291 Z " class="odd" fill="#000000"></path><path d="M 155.5 290.98580842592287 L 152.5 291.00495018517915 L 152.7988659339923 295.2524750925896 C 152.97326884686512 297.7311139473324 152.5568178333392 300.10050504854104 151.7988659339923 300.94195842737145 C 150.71876066798671 302.1410559246611 150.74090833439863 302.2252681063273 151.93036511839603 301.44195842737145 C 153.12915902536085 300.65249984171095 153.29105559879721 301.4298157135382 152.93036511839603 306.2432698778129 L 152.5 311.9865397556258 L 156.5 312.00100190602296 L 160.5 312.0154640564201 L 158.25 310.50773202821006 C 156.4784396347081 309.32060389369536 156.01678735560378 308.0962806899958 156.07894736842104 304.75 C 156.12236842105264 302.4125 156.34736842105264 301.0625 156.57894736842104 301.75 C 156.81052631578947 302.4375 158.4625 302.9940668334393 160.25 302.98681518542065 L 163.5 302.9736303708413 L 162.75 307.48681518542065 L 162 312 L 166.25 312.00773202821006 L 170.5 312.0154640564201 L 168.25 310.50773202821006 C 166.24277679704915 309.1626854900521 165.99820165335518 308.163768810164 165.98333333333335 301.25 C 165.97270662349723 296.30857992621037 166.42570338578923 293.04096328087746 167.23333333333335 292.23333333333335 C 168.25555555555556 291.2111111111111 167.92105263157896 290.96999225834946 165.5 290.983899278114 L 162.5 291.0011318895613 L 162.75 295.50056594478065 L 163 300 L 159.5 300 L 156 300 L 155.98333333333335 296.75 C 155.97416666666666 294.9625 156.53666666666666 292.93 157.23333333333335 292.23333333333335 C 158.25555555555556 291.2111111111111 157.92105263157896 290.97036069038273 155.5 290.98580842592287 Z " class="odd" fill="#000000"></path><path d="M 179 291.1082693222652 C 177.075 291.17632268054206 174.825 291.4171822413926 174 291.6435127908219 C 172.89713958320178 291.94607158364346 172.58735642844323 293.17296777846343 172.82994606482794 296.2775114403467 C 173.0458078020266 299.04000450497426 172.70004120623844 300.7593249468411 171.82994606482794 301.25 C 170.75098095009443 301.8584636493547 170.7830727012906 302.17802677681635 172 302.9433624789922 C 173.15347537660824 303.6687927394813 173.32673768830412 304.82387481745377 172.75 307.9433624789922 L 172 312 L 176.25 311.92105263157896 C 178.5875 311.8776315789474 179.825 311.58515674072095 179 311.2711085466313 C 178.175 310.95706035254165 177.16939074853266 310.20508666833115 176.76531277451704 309.60005591505234 C 176.36123480050145 308.9950251617735 176.02373480050144 307.0375 176.01531277451704 305.25 C 176.0037506317369 302.79603817919127 176.4687636511441 301.9387662939084 177.91383014790327 301.75 C 179.01211393579413 301.60653327319903 180.2427343006983 302.35226618559216 180.8017081036598 303.5 C 181.3374343979791 304.6 182.05121083142262 307.1875 182.38787795575655 309.25 C 182.72454508009045 311.3125 183.225 313 183.5 313 C 183.775 313 184.9 312.55 186 312 L 188 311 L 184.97131924375282 306.75 C 183.30554482781687 304.4125 181.95554482781688 302.1625 181.97131924375282 301.75 L 182 301 L 183.23991869381246 301.75 C 184.0623433805624 302.24746690499995 184.2306987772291 302.07911150833326 183.73991869381246 301.25 C 183.31491045140928 300.5320017828356 183.5320017828356 299.94959983109976 184.25 299.88157894736844 L 185.5 299.7631578947368 L 186.25 299.88157894736844 C 186.6625 299.94671052631577 186.775 299.55 186.5 299 C 186.225 298.45 186.45 298 187 298 C 187.58923772458394 298 187.69192829343797 297.1158295929852 187.25 295.8474887789556 C 186.8375 294.6636076073812 185.6 293.08512819468666 184.5 292.33975675074555 C 183.4 291.59438530680444 180.925 291.04021596398826 179 291.1082693222652 Z " class="odd" fill="#000000"></path><path d="M 194.5 291.0622807017544 C 192.3 291.1148684210526 191.0625 291.34736842105264 191.75 291.57894736842104 C 192.62621832358676 291.87409459320816 193 294.69122807017544 193 301 C 193 306.3333333333333 192.59259259259258 310 192 310 C 191.45 310 191.225 310.45 191.5 311 C 191.775 311.55 193.9125 311.96954387345676 196.25 311.93231971879277 L 200.5 311.8646394375855 L 198.21898504996076 310.68231971879277 L 195.93797009992153 309.5 L 195.95231838329408 301.5 C 195.96147488515058 296.39471925318725 196.42499721508798 293.0416694515787 197.23333333333335 292.23333333333335 C 198.25555555555556 291.2111111111111 197.7280701754386 290.98511849799934 194.5 291.0622807017544 Z " class="odd" fill="#000000"></path><path d="M 209 291.1082693222652 C 207.075 291.17632268054206 204.825 291.4171822413926 204 291.6435127908219 C 202.89713958320178 291.94607158364346 202.58735642844323 293.17296777846343 202.82994606482794 296.2775114403467 C 203.0458078020266 299.04000450497426 202.70004120623844 300.7593249468411 201.82994606482794 301.25 C 200.75098095009443 301.8584636493547 200.7830727012906 302.17802677681635 202 302.9433624789922 C 203.15347537660824 303.6687927394813 203.32673768830412 304.82387481745377 202.75 307.9433624789922 L 202 312 L 206.25 311.92105263157896 C 208.5875 311.8776315789474 209.825 311.58515674072095 209 311.2711085466313 C 208.175 310.95706035254165 207.16939074853266 310.20508666833115 206.76531277451704 309.60005591505234 C 206.36123480050145 308.9950251617735 206.02373480050144 307.0375 206.01531277451704 305.25 C 206.0037506317369 302.79603817919127 206.4687636511441 301.9387662939084 207.91383014790327 301.75 C 209.01211393579413 301.60653327319903 210.2427343006983 302.35226618559216 210.8017081036598 303.5 C 211.3374343979791 304.6 212.05121083142262 307.1875 212.38787795575655 309.25 C 212.72454508009045 311.3125 213.225 313 213.5 313 C 213.775 313 214.9 312.55 216 312 L 218 311 L 214.97131924375282 306.75 C 213.30554482781687 304.4125 211.95554482781688 302.1625 211.97131924375282 301.75 L 212 301 L 213.23991869381246 301.75 C 214.0623433805624 302.24746690499995 214.2306987772291 302.07911150833326 213.73991869381246 301.25 C 213.31491045140928 300.5320017828356 213.5320017828356 299.94959983109976 214.25 299.88157894736844 L 215.5 299.7631578947368 L 216.25 299.88157894736844 C 216.6625 299.94671052631577 216.775 299.55 216.5 299 C 216.225 298.45 216.45 298 217 298 C 217.58923772458394 298 217.69192829343797 297.1158295929852 217.25 295.8474887789556 C 216.8375 294.6636076073812 215.6 293.08512819468666 214.5 292.33975675074555 C 213.4 291.59438530680444 210.925 291.04021596398826 209 291.1082693222652 Z " class="odd" fill="#000000"></path><path d="M 231.5 291 C 228.6029839588071 291 228.1041727333204 291.3014919794036 228.6046671081313 292.75 C 228.93723401760354 293.7125 228.71223401760355 295.5125 228.1046671081313 296.75 C 227.4971001986591 297.9875 226.55 298.775 226 298.5 C 225.45 298.225 224.775 298.675 224.5 299.5 C 224.225 300.325 224.45 301 225 301 C 225.55 301 226.01370846550728 301.5625 226.03046325668282 302.25 C 226.0472180478584 302.9375 224.9222180478584 305.1875 223.53046325668282 307.25 C 222.13870846550728 309.3125 221 311.225 221 311.5 C 221 311.775 222.8 312 225 312 C 228.55555555555554 312 228.83333333333334 311.8333333333333 227.5 310.5 C 226.675 309.675 226 308.325 226 307.5 C 226 306.675 226.3375 305.3192532500247 226.75 304.48722944449935 C 227.40349288949616 303.1691163758876 227.72287174380085 303.20128541272226 229.232036188608 304.73722944449935 C 230.64388508296977 306.1741310959581 231.24468587058865 306.26892277399276 232.482036188608 305.25 C 233.7343695557312 304.2187391114624 234.17499128916992 304.34998257833985 235 306 C 235.55 307.1 235.775 308.9 235.5 310 L 235 312 L 243.25 312.0325947355461 L 251.5 312.0651894710922 L 249.7752782070005 310.2825947355461 C 248.49734135398938 308.9617767834657 248.05514971593962 306.81619098122843 248.06828791577345 302 L 248.0860194175459 295.5 L 250.90608461715465 303.5 C 252.45712047693945 307.9 254.12526610799162 311.61150700066844 254.6130749083817 311.7477933348187 C 255.1008837087718 311.884079668969 255.59853236267708 310.759079668969 255.718960805949 309.2477933348187 C 255.83938924922097 307.73650700066844 256.8600539110785 304.25 257.9871044989658 301.5 L 260.0362873860335 296.5 L 259.7681436930168 304.2490236596643 L 259.5 311.99804731932863 L 263.5 312.0067556878744 L 267.5 312.0154640564201 L 265.25 310.50773202821006 C 263.24277679704915 309.1626854900521 262.9982016533552 308.163768810164 262.98333333333335 301.25 C 262.97270662349723 296.3085799262103 263.4257033857892 293.04096328087746 264.23333333333335 292.23333333333335 C 265.25555555555553 291.21111111111117 264.7763157894737 290.9698830409357 261.75 290.98333333333335 C 258.62358480205694 290.99722851199084 258.0982974349421 291.2910062409599 258.5911230995639 292.75 C 258.9162408043241 293.7125 258.15507378670856 296.975 256.89964083819604 300 L 254.61703547726418 305.5 L 252.7705563726927 300 C 251.7549928651784 296.975 251.16615988279395 293.7125 251.4620386340606 292.75 C 251.90760522516405 291.3005622079953 251.35593812572435 290.997137502781 248.25 290.98333333333335 C 245.2236842105263 290.96988304093566 244.74444444444444 291.2111111111111 245.76666666666665 292.23333333333335 C 246.5475478341683 293.014214500835 247.03345474250935 296.1846040743329 247.03364990300565 300.5 C 247.03383141308655 304.5135574481662 246.4934275227547 308.28675658419866 245.766983236339 309.3440991225526 C 245.04592695012866 310.3935994052507 243.6382254563902 311.0330209896219 242.5 310.82806401595207 C 241.4 310.6299901899178 239.98621250459846 309.35014558476917 239.3582500102188 307.98396489339945 C 238.73028751583917 306.6177842020297 237.94278751583914 304.4875 237.6082500102188 303.25 C 237.08575272201915 301.3172110502287 237.31721105022868 301.0720545895448 239.25 301.5110882056564 L 241.5 302.0221764113128 L 240.25 301.5110882056564 C 239.5625 301.22998969254536 239 300.325 239 299.5 C 239 298.6111111111111 238.38888888888889 298.2037037037037 237.5 298.5 C 236.53129058573057 298.8229031380898 235.6313864069875 298.02596725949394 234.9592881854693 296.25 C 234.3868966874774 294.7375 234.1618966874774 292.9375 234.4592881854693 292.25 C 234.83341641777344 291.38510251151797 233.9217129677497 291 231.5 291 Z " class="odd" fill="#000000"></path><path d="M 178.75 292.0996800253506 L 181.5 292.1993600507012 L 179 293.0752404078846 L 176.5 293.9511207650681 L 179.7268452033383 293.725560382534 C 181.555315065569 293.5977481276573 183.1804031000767 294.04169601150255 183.4768452033383 294.75 C 183.76458034150224 295.4375 183.6625 296.6919044742903 183.25 297.53756549842296 C 182.8375 298.3832265225556 181.15 299.5156782115165 179.5 300.05412480722504 C 177.85 300.5925714029336 176.3875 301.0256669286432 176.25 301.0165593088021 C 176.1125 301.00745168896094 176 298.975 176 296.5 L 176 292 L 178.75 292.0996800253506 Z " class="even" fill="#ffffff"></path><path d="M 208.75 292.0996800253506 L 211.5 292.1993600507012 L 209 293.0752404078846 L 206.5 293.9511207650681 L 209.7268452033383 293.725560382534 C 211.555315065569 293.5977481276573 213.1804031000767 294.04169601150255 213.4768452033383 294.75 C 213.76458034150224 295.4375 213.775 296.675 213.5 297.5 C 213.225 298.325 212.8875 298.99959081404745 212.75 298.9990906978833 C 212.6125 298.9985905817191 211.0375 299.4485905817191 209.25 299.9990906978833 L 206 301 L 206 296.5 L 206 292 L 208.75 292.0996800253506 Z " class="even" fill="#ffffff"></path><path d="M 231 295.5 C 231.55 295.775 232.225 297.35 232.5 299 L 233 302 L 232.5 303 C 232.1969696969697 303.6060606060606 231.21212121212122 303.40909090909093 230 302.5 C 228.3111111111111 301.23333333333335 228.15555555555557 300.53333333333336 229 298 C 229.55 296.35 230.45 295.225 231 295.5 Z " class="even" fill="#ffffff"></path><path d="M 110.5 360.07227180798424 L 107.5 360.0896237894508 L 112.5 364.55925613529905 C 115.25 367.01755392551553 120.425 370.5570270145481 124 372.4247518887048 C 127.57499999999999 374.29247676286144 132.975 376.5474458933477 136 377.43579440089644 C 140.69625943507367 378.8149398753459 143.83815437069478 378.9174208621454 157.5 378.1370722161438 C 171.76353774690864 377.32235562001154 173.6627933362273 377.00483509548144 175 375.21139480309495 C 175.825 374.1049179350808 177.6551857679661 371.69220447656045 179.06707948436906 369.84980933971644 C 180.47897320077203 368.0074142028724 183.85397320077203 365.02789878886244 186.56707948436906 363.2286639752499 L 191.5 359.95732795049986 L 188.25 359.9786639752499 C 186.4625 359.9903987888625 184.775 360.45 184.5 361 C 184.225 361.55 183.55 362 183 362 C 182.45 362 182.225 361.55 182.5 361 C 182.80555555555554 360.3888888888889 180.66666666666666 360 177 360 C 173.7 360 170.9925 360.3375 170.98333333333335 360.75 C 170.97416666666672 361.1625 171.53666666666672 362.07 172.23333333333335 362.7666666666667 C 173.23753753753755 363.77087087087097 173.240990990991 364.02987987987996 172.25 364.0166666666667 C 171.5625 364.0075 170.775 363.55 170.5 363 C 170.225 362.45 168.0875 363.5620588206258 165.75 365.4712418236128 C 163.4125 367.38042482659984 158.8 370.055853052755 155.5 371.4166378817354 L 149.5 373.8907921162452 L 155.5 374.3010001108396 C 158.8 374.52661450786655 156.1 374.66368628171136 149.5 374.605604052717 L 137.5 374.5 L 130.5 371.1825985387833 C 126.65 369.35802773511404 121.25 366.10788469608053 118.5 363.96005845204206 C 115.19084606706404 361.3755174837793 112.48549235976157 360.0607877324414 110.5 360.07227180798424 Z " class="odd" fill="#000000"></path><path d="M 133 360 C 132.45 360 131.83229345894085 360.5625 131.6273187976463 361.25 C 131.42234413635177 361.9375 132.04005067741093 362.5 133 362.5 C 133.95994932258907 362.5 134.57765586364823 361.9375 134.3726812023537 361.25 C 134.16770654105915 360.5625 133.55 360 133 360 Z " class="odd" fill="#000000"></path><path d="M 144 360 C 143.45 360 143 360.45 143 361 C 143 361.55 143.45 361.775 144 361.5 C 144.55 361.225 145 360.775 145 360.5 C 145 360.225 144.55 360 144 360 Z " class="odd" fill="#000000"></path><path d="M 211.75 359.98568600496446 L 208.5 359.97137200992887 L 213 362.8177371081229 C 215.475 364.38323791212963 219.075 367.462820255784 221 369.66125342735484 C 222.925 371.8596865989257 224.95 374.4325903677086 225.5 375.3788173579835 C 226.33595332351962 376.8170020803914 229.0427234854458 377.25656072793345 242 378.05829040171 C 255.0635391586702 378.8665950617427 258.44314613212765 378.77099000623707 263.5 377.45008101241837 C 266.8 376.5880826645334 272.425 374.34067865722625 276 372.45584988506914 C 279.575 370.5710211129121 284.75 367.01755392551553 287.5 364.55925613529905 L 292.5 360.08962378945085 L 289.5 360.00028654365553 C 287.8197439362289 359.9502500606661 285.8401280318855 360.66588047837183 285 361.6270348803455 C 284.175 362.5708819507124 280.575 365.2320392405518 277 367.5407177466552 C 273.425 369.8493962527587 267.8 372.74035446134945 264.5 373.96506932130126 L 258.5 376.19182361212285 L 248.5 375.2456152642309 C 241.19528005529486 374.5544365651616 239.91502202902979 374.2590576418376 243.75 374.1497034581695 C 246.6375 374.06736655617624 249 373.55 249 373 C 249 372.45 248.325 372 247.5 372 C 246.675 372 241.95 369.3 237 366 L 228 360 L 222.75 359.9818756468345 L 217.5 359.96375129366896 L 220.73430210184193 363.2318756468345 C 222.51316825785503 365.0293440410755 223.99451399278678 366.95 224.0261815128014 367.5 C 224.05784903281602 368.05 222.03991308698716 366.5875 219.54187941095944 364.25 C 216.14144790211228 361.0680938759121 214.18322233018483 359.99640266107355 211.75 359.98568600496446 Z " class="odd" fill="#000000"></path><path d="M 263 360 C 262.45 360 262.225 360.45 262.5 361 C 262.775 361.55 263.225 362 263.5 362 C 263.775 362 264 361.55 264 361 C 264 360.45 263.55 360 263 360 Z " class="odd" fill="#000000"></path><path d="M 267 360 C 266.45 360 265.83229345894085 360.5625 265.62731879764635 361.25 C 265.4223441363518 361.9375 266.04005067741093 362.5 267 362.5 C 267.95994932258907 362.5 268.5776558636482 361.9375 268.37268120235365 361.25 C 268.16770654105915 360.5625 267.55 360 267 360 Z " class="odd" fill="#000000"></path><path d="M 181 362 C 181.55 362 180.3125 364.03099938670107 178.25 366.51333197044687 C 176.1875 368.9956645541927 174.3875 371.02066455419265 174.25 371.01333197044687 C 174.1125 371.0059993867011 175.35 368.975 177 366.5 C 178.65 364.025 180.45 362 181 362 Z " class="even" fill="#ffffff"></path></g></svg>